<?xml version="1.0" encoding="UTF-8"?>
<svg id="Layer_1" data-name="Layer 1" xmlns="http://www.w3.org/2000/svg" width="76.2" height="16" xmlns:xlink="http://www.w3.org/1999/xlink" viewBox="0 0 76.2 16">
  <defs>
    <style>
      .cls-1 {
        fill: url(#linear-gradient);
      }

      .cls-1, .cls-2, .cls-3, .cls-4 {
        stroke-width: 0px;
      }

      .cls-2 {
        fill: url(#linear-gradient-2);
      }

      .cls-3 {
        fill: url(#linear-gradient-3);
      }

      .cls-4 {
        fill: #212121;
      }
    </style>
    <linearGradient id="linear-gradient" x1="10.68" y1="12.07" x2="10.68" y2="3.29" gradientUnits="userSpaceOnUse">
      <stop offset="0" stop-color="#fff"/>
      <stop offset=".04" stop-color="#dadada"/>
      <stop offset=".1" stop-color="#afafaf"/>
      <stop offset=".16" stop-color="#888"/>
      <stop offset=".22" stop-color="#686868"/>
      <stop offset=".29" stop-color="#4e4e4e"/>
      <stop offset=".36" stop-color="#3a3a3a"/>
      <stop offset=".45" stop-color="#2b2b2b"/>
      <stop offset=".55" stop-color="#232323"/>
      <stop offset=".72" stop-color="#212121"/>
    </linearGradient>
    <linearGradient id="linear-gradient-2" x1="8.05" y1="10.11" x2="8.05" y2="4.76" gradientUnits="userSpaceOnUse">
      <stop offset="0" stop-color="#fff"/>
      <stop offset=".06" stop-color="#dadada"/>
      <stop offset=".13" stop-color="#afafaf"/>
      <stop offset=".22" stop-color="#898989"/>
      <stop offset=".3" stop-color="#686868"/>
      <stop offset=".4" stop-color="#4e4e4e"/>
      <stop offset=".5" stop-color="#3a3a3a"/>
      <stop offset=".62" stop-color="#2b2b2b"/>
      <stop offset=".76" stop-color="#232323"/>
      <stop offset="1" stop-color="#212121"/>
    </linearGradient>
    <linearGradient id="linear-gradient-3" x1="5.43" y1="8.16" x2="5.43" y2="2.89" gradientUnits="userSpaceOnUse">
      <stop offset="0" stop-color="#fff"/>
      <stop offset=".05" stop-color="#dfdfdf"/>
      <stop offset=".13" stop-color="#b3b3b3"/>
      <stop offset=".22" stop-color="#8c8c8c"/>
      <stop offset=".31" stop-color="#6a6a6a"/>
      <stop offset=".41" stop-color="#4f4f4f"/>
      <stop offset=".52" stop-color="#3b3b3b"/>
      <stop offset=".64" stop-color="#2c2c2c"/>
      <stop offset=".78" stop-color="#232323"/>
      <stop offset="1" stop-color="#212121"/>
    </linearGradient>
  </defs>
  <rect class="cls-4" width="16.11" height="16"/>
  <rect class="cls-1" x="8.05" y="2.63" width="5.24" height="9.43"/>
  <rect class="cls-2" x="5.43" y="2.63" width="5.24" height="7.48"/>
  <rect class="cls-3" x="2.81" y="2.63" width="5.24" height="5.53"/>
  <g>
    <path class="cls-4" d="M26.5,12.72c-1.47,0-2.59-.4-3.34-1.2-.75-.8-1.13-1.88-1.13-3.24,0-.97.16-1.81.48-2.52.32-.7.81-1.25,1.47-1.63.66-.38,1.5-.57,2.51-.57.52,0,.99.04,1.42.12.43.08.83.18,1.2.31v1.31c-.37-.15-.77-.26-1.19-.34-.42-.08-.86-.12-1.33-.12-1.11,0-1.9.29-2.35.88-.46.59-.69,1.44-.69,2.55,0,1.04.25,1.83.75,2.37.5.54,1.27.81,2.32.81.42,0,.85-.03,1.28-.1.43-.07.84-.18,1.22-.32v1.32c-.37.12-.77.21-1.2.28-.43.06-.91.1-1.42.1Z"/>
    <path class="cls-4" d="M33.26,12.72c-.42,0-.8-.07-1.16-.22-.36-.15-.64-.37-.85-.67-.21-.3-.32-.67-.32-1.11,0-.63.22-1.13.65-1.51s1.09-.57,1.99-.57h2.11v-.29c0-.31-.05-.56-.15-.74-.1-.18-.27-.32-.53-.4-.25-.08-.63-.12-1.12-.12-.78,0-1.51.12-2.18.35v-1.12c.3-.12.66-.22,1.08-.29s.88-.11,1.37-.11c.96,0,1.7.19,2.2.58.51.39.76,1.02.76,1.89v4.21h-1.29l-.1-.66c-.27.26-.6.46-.99.59-.39.14-.89.21-1.48.21ZM33.66,11.64c.45,0,.85-.08,1.19-.23.34-.15.61-.36.83-.61v-1.14h-2.08c-.45,0-.77.09-.97.26-.2.17-.3.43-.3.78s.12.58.35.73c.23.15.56.22.99.22Z"/>
    <path class="cls-4" d="M41.61,12.72c-.45,0-.89-.03-1.3-.1-.41-.06-.75-.14-1.02-.23v-1.27c.31.12.66.21,1.04.28.38.06.74.1,1.08.1.52,0,.89-.05,1.11-.14.22-.09.33-.27.33-.54,0-.19-.07-.34-.2-.46-.13-.11-.33-.21-.6-.3s-.6-.2-1.01-.33c-.39-.13-.73-.27-1.01-.42-.29-.15-.51-.35-.67-.59s-.24-.55-.24-.94c0-.6.22-1.06.65-1.39.44-.33,1.13-.49,2.1-.49.38,0,.74.03,1.08.08.34.06.63.12.87.21v1.26c-.26-.1-.54-.18-.85-.23-.31-.06-.6-.08-.87-.08-.48,0-.84.04-1.09.12-.25.08-.37.25-.37.5s.13.44.38.54c.25.11.66.25,1.23.43.52.16.93.32,1.24.5s.53.38.66.63c.13.24.2.56.2.95,0,.64-.24,1.12-.71,1.44s-1.16.48-2.05.48Z"/>
    <path class="cls-4" d="M49.49,12.72c-1.16,0-2.03-.29-2.62-.88-.59-.58-.89-1.43-.89-2.53s.33-2,.98-2.57c.65-.56,1.52-.84,2.62-.84.45,0,.84.03,1.15.1.31.06.61.17.9.3v1.12c-.48-.24-1.06-.36-1.75-.36-.76,0-1.34.17-1.75.5-.41.34-.61.92-.61,1.74,0,.78.18,1.35.54,1.72.36.36.96.54,1.79.54.66,0,1.25-.12,1.79-.37v1.14c-.31.12-.63.21-.98.28-.35.06-.73.1-1.16.1Z"/>
    <path class="cls-4" d="M55.51,12.72c-.42,0-.8-.07-1.16-.22-.36-.15-.64-.37-.85-.67-.21-.3-.32-.67-.32-1.11,0-.63.22-1.13.65-1.51s1.09-.57,1.99-.57h2.11v-.29c0-.31-.05-.56-.15-.74-.1-.18-.27-.32-.53-.4-.25-.08-.63-.12-1.12-.12-.78,0-1.51.12-2.18.35v-1.12c.3-.12.66-.22,1.08-.29s.88-.11,1.37-.11c.96,0,1.7.19,2.2.58.51.39.76,1.02.76,1.89v4.21h-1.29l-.1-.66c-.27.26-.6.46-.99.59-.39.14-.89.21-1.48.21ZM55.91,11.64c.45,0,.85-.08,1.19-.23.34-.15.61-.36.83-.61v-1.14h-2.08c-.45,0-.77.09-.97.26-.2.17-.3.43-.3.78s.12.58.35.73c.23.15.56.22.99.22Z"/>
    <path class="cls-4" d="M64.38,12.72c-.59,0-1.12-.1-1.57-.3s-.81-.54-1.06-1.01-.38-1.1-.38-1.89.13-1.44.4-1.98c.27-.54.64-.94,1.12-1.22.48-.28,1.02-.41,1.62-.41.4,0,.75.05,1.06.14.31.09.61.23.9.43v-3.19h1.51v9.3h-1.29l-.1-.65c-.3.27-.62.46-.97.59-.35.13-.77.19-1.25.19ZM64.79,11.59c.68,0,1.24-.23,1.69-.69v-3.27c-.44-.39-.98-.58-1.64-.58s-1.12.21-1.44.63c-.32.42-.49,1.04-.49,1.85s.15,1.32.45,1.61c.3.29.78.44,1.42.44Z"/>
    <path class="cls-4" d="M73.55,12.72c-1.15,0-2.04-.28-2.67-.84-.63-.56-.94-1.42-.94-2.58,0-1.05.27-1.88.81-2.48.54-.61,1.35-.91,2.44-.91,1,0,1.75.26,2.26.78.5.52.76,1.19.76,2.01v1.21h-4.82c.07.63.31,1.07.7,1.31s.98.36,1.78.36c.33,0,.67-.03,1.03-.1.35-.06.66-.15.92-.25v1.1c-.3.13-.64.23-1.02.29-.38.06-.79.1-1.23.1ZM71.38,8.92h3.49v-.46c0-.45-.13-.8-.38-1.06-.25-.25-.67-.38-1.26-.38-.7,0-1.19.15-1.45.46-.26.3-.4.78-.4,1.43Z"/>
  </g>
</svg>